:SAMPLES-PER-SECOND 30
:FULLY-SPECIFIED
:DEGREES
251
root  35.11460372 36.49109367 -14.9265845 9.257805824 4.401106358 3.694782257
lowerback  -8.719618797 0.8501080275 0.6186826229
upperback  -3.814610004 0.7476180196 -3.456939936
thorax  0.9912559986 0.174289003 -3.859699965
lowerneck  -16.49399948 -1.762400031 -0.4751209915
upperneck  12.7493 -3.433880091 6.049049854
head  6.721270084 -1.217550039 1.662719846
lclavicle  0 -4.497500157e-015 -2.743230041e-014
lhumerus  -43.5768013 26.75959969 69.39099884
lradius  -0.1120382175 -6.507048965e-006 27.73270226
lwrist  4.824992743e-007 -3.790274832e-007 -30.54630089
lhand  -4.413016982e-031 -36.85449982 -10.36330032
lfingers  90 7.125020027 -90
lthumb  94.7288993 -25.20647527 100.9921953
rclavicle  0 -4.497500157e-015 -2.743230041e-014
rhumerus  -27.21870041 -6.924161434 -63.01399994
rradius  -5.16745672e-007 2.214343908e-008 110.2310028
rwrist  1.380293725e-006 2.528095422e-007 179.1600037
rhand  -1.768291195e-031 3.183409929 -6.295129776
rfingers  -90 -7.125020027 -90
rthumb  -84.73757031 -9.535089944 -60.92499714
rfemur  -12.35178757 13.09100342 13.71781254
rtibia  -1.684208035 1.032532215 22.1719017
rfoot  -1.330241203 -17.96764755 -41.09761047
rtoes  3.829791652 19.6446471 -101.2615962
lfemur  -10.44146633 -20.65777016 -19.1196785
ltibia  2.014368534 0.7145105004 16.11700821
lfoot  0.7898536325 -27.69403076 34.12090683
ltoes  -8.659185977 -18.09786351 -116.1165255
252
root  35.11476592 36.49100957 -14.92858346 9.271902084 4.332346916 3.675059319
lowerback  -8.569140434 0.8255380392 0.5891131163
upperback  -3.853970051 0.7148029804 -3.40741992
thorax  0.8643980026 0.1573210061 -3.794620037
lowerneck  -16.40950012 -1.702620029 -0.5123720169
upperneck  12.73260021 -3.338890076 6.039259911
head  6.698420048 -1.175690174 1.676190019
lclavicle  0 -4.497500157e-015 -2.743230041e-014
lhumerus  -43.63399887 26.78580093 69.41449738
lradius  -0.1117823571 -6.507048965e-006 27.68899727
lwrist  4.824992743e-007 -3.790274832e-007 -30.5182991
lhand  -4.413710055e-031 -36.86650085 -10.36830044
lfingers  90 7.125020027 -90
lthumb  94.73544927 -25.21092525 101.0053452
rclavicle  0 -4.497500157e-015 -2.743230041e-014
rhumerus  -28.73040009 -7.145738602 -63.28689957
rradius  -5.16745672e-007 2.214343908e-008 109.9550018
rwrist  1.380293725e-006 2.528095422e-007 178.8159943
rhand  -0 3.214620113 -5.915120125
rfingers  -90 -7.125020027 -90
rthumb  -84.54250679 -9.868687581 -60.86287857
rfemur  -12.37348366 13.12121677 13.71253967
rtibia  -1.674231291 1.023577571 22.14429283
rfoot  -1.318690658 -17.9808712 -41.08538437
rtoes  3.821706218 19.64616171 -101.2375466
lfemur  -10.48701191 -20.6736393 -19.07544899
ltibia  1.976149917 0.705704093 16.15435791
lfoot  0.8006272912 -27.68109703 34.21469498
ltoes  -8.664872093 -18.0952127 -116.1348312
253
root  35.11236897 36.49175148 -14.93148203 9.252894402 4.263205528 3.651793718
lowerback  -8.528770447 0.7948419452 0.6158713698
upperback  -3.859210014 0.6721090078 -3.384330034
thorax  0.8338109851 0.1360349953 -3.789720058
lowerneck  -16.37989998 -1.635460019 -0.4900740087
upperneck  12.72770023 -3.243730068 5.996590137
head  6.687200069 -1.132359982 1.671812534
lclavicle  0 -4.497500157e-015 -2.743230041e-014
lhumerus  -43.66450119 26.67639923 69.52670288
lradius  -0.1115239263 -6.507048965e-006 27.78480148
lwrist  4.824992743e-007 -3.790274832e-007 -30.31760025
lhand  -4.417899919e-031 -36.93889999 -10.38430023
lfingers  90 7.125020027 -90
lthumb  94.77236286 -25.22417249 101.0840937
rclavicle  0 -4.497500157e-015 -2.743230041e-014
rhumerus  -30.11179924 -7.372839451 -63.63800049
rradius  -5.16745672e-007 2.214343908e-008 109.6600037
rwrist  1.380293725e-006 2.528095422e-007 178.677002
rhand  -1.768451144e-031 3.275259972 -5.903260231
rfingers  -90 -7.125020027 -90
rthumb  -84.52171996 -9.882110858 -60.80243233
rfemur  -12.38205528 13.16108418 13.72864246
rtibia  -1.667223096 1.035197854 22.15030098
rfoot  -1.308459878 -17.98548126 -41.05073929
rtoes  3.796163035 19.65092472 -101.1615817
lfemur  -10.489851 -20.65823364 -19.03728294
ltibia  1.939915419 0.6945699453 16.17505074
lfoot  0.7830768228 -27.66211128 34.24573517
ltoes  -8.648263899 -18.10294916 -116.0813704
254
root  35.10925413 36.49175449 -14.93437459 9.216598511 4.191211224 3.651744127
lowerback  -8.482000351 0.7487200499 0.5489585996
upperback  -3.877870083 0.6160299778 -3.290250063
thorax  0.7832440138 0.1098729968 -3.658780098
lowerneck  -16.40690041 -1.593029976 -0.523146987
upperneck  12.80300045 -3.172689676 5.947490215
head  6.712900162 -1.10086 1.666409969
lclavicle  0 -4.497500157e-015 -2.743230041e-014
lhumerus  -43.76499939 26.68260002 69.65910339
lradius  -0.111262925 -6.507048965e-006 27.9335022
lwrist  4.824992743e-007 -3.790274832e-007 -30.27350044
lhand  -4.419802984e-031 -36.97169876 -10.33479977
lfingers  90 7.125020027 -90
lthumb  94.77701547 -25.17443324 101.1146584
rclavicle  0 -4.497500157e-015 -2.743230041e-014
rhumerus  -31.37619972 -7.584039211 -63.91049957
rradius  -5.16745672e-007 2.214343908e-008 109.2959976
rwrist  1.380293725e-006 2.528095422e-007 178.8000031
rhand  -0 3.164629936 -5.974820137
rfingers  -90 -7.125020027 -90
rthumb  -84.58422003 -9.813972112 -60.91679388
rfemur  -12.38871002 13.26211548 13.73047924
rtibia  -1.666902065 1.073639512 22.20025253
rfoot  -1.31870234 -17.9365387 -41.05835342
rtoes  3.787754031 19.65248545 -101.1365773
lfemur  -10.4236784 -20.63488579 -19.06049156
ltibia  1.943822026 0.6792368889 16.12689781
lfoot  0.7609845996 -27.61228752 34.27337265
ltoes  -8.660252044 -18.09736669 -116.1199573
255
root  35.10751799 36.49157426 -14.93614227 9.193086624 4.127840042 3.636590481
lowerback  -8.456749916 0.7149199843 0.6321876645
upperback  -3.878279924 0.5650839806 -3.288980007
thorax  0.7662870288 0.08366470039 -3.709320068
lowerneck  -16.38150024 -1.530429959 -0.5122849941
upperneck  12.80440044 -3.092050314 5.955150127
head  6.70622015 -1.061390162 1.675780058
lclavicle  0 -4.497500157e-015 -2.743230041e-014
lhumerus  -43.75230026 26.47039986 69.8015976
lradius  -0.1109993532 -6.507048965e-006 28.00529861
lwrist  4.824992743e-007 -3.790274832e-007 -29.9314003
lhand  -4.418108711e-031 -36.94250107 -10.35639954
lfingers  90 7.125020027 -90
lthumb  94.76811891 -25.19669967 101.0854417
rclavicle  0 -4.497500157e-015 -2.743230041e-014
rhumerus  -32.58140182 -7.687680721 -64.33010101
rradius  -5.16745672e-007 2.214343908e-008 108.862999
rwrist  1.380293725e-006 2.528095422e-007 179.2819977
rhand  -1.768079281e-031 3.057450056 -5.950059891
rfingers  -90 -7.125020027 -90
rthumb  -84.59812711 -9.830268758 -61.01961776
rfemur  -12.38556767 13.37615013 13.74028301
rtibia  -1.668031693 1.106495023 22.20635223
rfoot  -1.31372416 -17.89084816 -41.08336639
rtoes  3.779771768 19.65396365 -101.1128436
lfemur  -10.37621593 -20.58124161 -19.0572834
ltibia  1.941506743 0.6928959489 16.09435654
lfoot  0.7628206015 -27.63011742 34.32135773
ltoes  -8.660833745 -18.09709556 -116.12183
256
root  35.10527723 36.49129792 -14.93878252 9.174134254 4.07103157 3.628417253
lowerback  -8.430060387 0.6611158848 0.7273947001
upperback  -3.876430035 0.4860099852 -3.305809975
thorax  0.7489230037 0.04272890091 -3.788069963
lowerneck  -16.41570091 -1.386440039 -0.3532119989
upperneck  12.89459991 -2.941469908 5.937419891
head  6.73375988 -0.9814910889 1.660150051
lclavicle  0 -4.497500157e-015 -2.743230041e-014
lhumerus  -43.76459885 26.33860016 69.84140015
lradius  -0.1107331961 -6.507048965e-006 28.07379723
lwrist  4.824992743e-007 -3.790274832e-007 -29.6298008
lhand  -0 -36.95510101 -10.36509991
lfingers  90 7.125020027 -90
lthumb  94.77577038 -25.20481961 101.0996093
rclavicle  0 -4.497500157e-015 -2.743230041e-014
rhumerus  -33.77560043 -7.732729912 -64.77929688
rradius  -5.16745672e-007 2.214343908e-008 108.4420013
rwrist  1.380293725e-006 2.528095422e-007 179.8320007
rhand  -1.768241542e-031 3.154350042 -5.80095005
rfingers  -90 -7.125020027 -90
rthumb  -84.50091829 -9.965484567 -60.9121963
rfemur  -12.382864 13.43693924 13.74614334
rtibia  -1.666825771 1.119327545 22.2094593
rfoot  -1.304139495 -17.87117386 -41.07266998
rtoes  3.773962694 19.65503736 -101.0955726
lfemur  -10.36367321 -20.57974052 -19.04865265
ltibia  1.923902988 0.6755064726 16.09821892
lfoot  0.7562431097 -27.59525681 34.36655807
ltoes  -8.668102293 -18.09370584 -116.1452316
257
root  35.10469151 36.48976604 -14.94230736 9.12760067 4.00822401 3.613588572
lowerback  -8.435741425 0.6146460176 0.756926477
upperback  -3.892810106 0.4203070104 -3.273240089
thorax  0.7304700017 0.009113510139 -3.776760101
lowerneck  -16.39559937 -1.28816998 -0.3292259872
upperneck  12.95530033 -2.813270092 5.91245985
head  6.74477005 -0.9197399616 1.662099957
lclavicle  0 -4.497500157e-015 -2.743230041e-014
lhumerus  -43.81359863 26.29339981 69.89839935
lradius  -0.1104644537 -6.507048965e-006 28.13929749
lwrist  4.824992743e-007 -3.790274832e-007 -29.49670029
lhand  -4.4203722e-031 -36.98149872 -10.36349964
lfingers  90 7.125020027 -90
lthumb  94.78764474 -25.20230088 101.1276582
rclavicle  0 -4.497500157e-015 -2.743230041e-014
rhumerus  -35.02510071 -7.925361156 -65.13909912
rradius  -5.16745672e-007 2.214343908e-008 108.0070038
rwrist  1.380293725e-006 2.528095422e-007 -179.7259979
rhand  -1.768210677e-031 3.136149883 -5.818649769
rfingers  -90 -7.125020027 -90
rthumb  -84.51415483 -9.949050752 -60.93144592
rfemur  -12.33753014 13.53242588 13.75306702
rtibia  -1.658424854 1.146332979 22.18126869
rfoot  -1.288271308 -17.81816483 -41.10256195
rtoes  3.792956318 19.65152032 -101.1520462
lfemur  -10.3382082 -20.54593277 -19.04347801
ltibia  1.891314864 0.65382725 16.13633537
lfoot  0.742539525 -27.58548927 34.36870193
ltoes  -8.645420154 -18.10427197 -116.0722188
